<svg width="13" height="14" viewBox="0 0 13 14" fill="none" xmlns="http://www.w3.org/2000/svg">
<path d="M11.4681 4.70317L11.54 4.70412C11.8065 4.72548 12.0108 4.94001 12.025 5.19824L12.0181 5.34222L11.791 8.03809L11.5527 10.6689C11.5023 11.1942 11.4572 11.6371 11.4182 11.9859C11.2829 13.2011 10.469 13.9526 9.24199 13.9749C7.3301 14.0091 5.49233 14.0088 3.70769 13.9714C2.5162 13.9471 1.71431 13.1875 1.58134 11.9908L1.48944 11.1091L1.32885 9.39892L1.16434 7.52225L0.976241 5.26951C0.952863 4.98049 1.16965 4.72735 1.46044 4.70411C1.727 4.68281 1.96322 4.86209 2.01875 5.11474L2.04036 5.32121L2.21698 7.4331L2.40983 9.62212C2.49633 10.5697 2.57135 11.3366 2.63139 11.8754C2.70717 12.5573 3.07766 12.9083 3.72964 12.9215C5.50034 12.9587 7.3244 12.959 9.22285 12.925C9.91445 12.9125 10.2908 12.565 10.3682 11.8701L10.4597 10.9932C10.4865 10.723 10.5151 10.4246 10.5454 10.1005L10.7385 7.94766L10.971 5.18525C10.9925 4.92031 11.2083 4.71723 11.4681 4.70317ZM0.528226 3.49243C0.236495 3.49243 0 3.25737 0 2.96741C0 2.70161 0.198721 2.48195 0.456549 2.44718L0.528226 2.44239H2.82946C3.10293 2.44239 3.34233 2.26749 3.42797 2.0155L3.44892 1.93769L3.62775 1.05373C3.78525 0.468276 4.29664 0.0514452 4.89594 0.00443204L5.00927 0H7.99058C8.59983 0 9.1378 0.382392 9.3449 0.97327L9.37979 1.08646L9.55089 1.93748C9.60461 2.2041 9.82404 2.40324 10.0895 2.43724L10.1704 2.44239H12.4718C12.7635 2.44239 13 2.67745 13 2.96741C13 3.23321 12.8013 3.45287 12.5435 3.48764L12.4718 3.49243H0.528226ZM7.99058 1.05004H5.00927C4.86106 1.05004 4.72932 1.13626 4.6746 1.24462L4.65604 1.29223L4.48485 2.14367C4.46391 2.24759 4.43357 2.34766 4.39481 2.44308L8.60513 2.44322C8.58094 2.38368 8.56002 2.32234 8.54262 2.25938L8.51497 2.14346L8.35151 1.32496C8.3133 1.18294 8.19531 1.07897 8.05293 1.05519L7.99058 1.05004Z" fill="white"/>
</svg>
